osim_states
version=1
nRows=4
nColumns=185
inDegrees=yes

# SIMM Motion File Header:
name osim_states
datacolumns 185
datarows 4
otherdata 1
range 0.03238850 0.03283477
endheader
time	platform_rx	platform_ry	platform_rz	platform_ty	pelvis_tilt	pelvis_list	pelvis_rotation	pelvis_tx	pelvis_ty	pelvis_tz	hip_flexion_r	hip_adduction_r	hip_rotation_r	knee_angle_r	patella_r_constrained_knee_angle	ankle_angle_r	subtalar_angle_r	mtp_angle_r	hip_flexion_l	hip_adduction_l	hip_rotation_l	knee_angle_l	patella_l_constrained_knee_angle	ankle_angle_l	subtalar_angle_l	mtp_angle_l	lumbar_extension	lumbar_bending	lumbar_rotation	arm_flex_r	arm_add_r	arm_rot_r	elbow_flex_r	pro_sup_r	wrist_flex_r	wrist_dev_r	arm_flex_l	arm_add_l	arm_rot_l	elbow_flex_l	pro_sup_l	wrist_flex_l	wrist_dev_l	platform_rx_u	platform_ry_u	platform_rz_u	platform_ty_u	pelvis_tilt_u	pelvis_list_u	pelvis_rotation_u	pelvis_tx_u	pelvis_ty_u	pelvis_tz_u	hip_flexion_r_u	hip_adduction_r_u	hip_rotation_r_u	knee_angle_r_u	patella_r_constrained_knee_angle_u	ankle_angle_r_u	subtalar_angle_r_u	mtp_angle_r_u	hip_flexion_l_u	hip_adduction_l_u	hip_rotation_l_u	knee_angle_l_u	patella_l_constrained_knee_angle_u	ankle_angle_l_u	subtalar_angle_l_u	mtp_angle_l_u	lumbar_extension_u	lumbar_bending_u	lumbar_rotation_u	arm_flex_r_u	arm_add_r_u	arm_rot_r_u	elbow_flex_r_u	pro_sup_r_u	wrist_flex_r_u	wrist_dev_r_u	arm_flex_l_u	arm_add_l_u	arm_rot_l_u	elbow_flex_l_u	pro_sup_l_u	wrist_flex_l_u	wrist_dev_l_u	glut_med1_r.activation	glut_med1_r.fiber_length	glut_med2_r.activation	glut_med2_r.fiber_length	glut_med3_r.activation	glut_med3_r.fiber_length	glut_min1_r.activation	glut_min1_r.fiber_length	glut_min2_r.activation	glut_min2_r.fiber_length	glut_min3_r.activation	glut_min3_r.fiber_length	semimem_r.activation	semimem_r.fiber_length	semiten_r.activation	semiten_r.fiber_length	bifemlh_r.activation	bifemlh_r.fiber_length	bifemsh_r.activation	bifemsh_r.fiber_length	sar_r.activation	sar_r.fiber_length	add_long_r.activation	add_long_r.fiber_length	add_brev_r.activation	add_brev_r.fiber_length	add_mag1_r.activation	add_mag1_r.fiber_length	add_mag2_r.activation	add_mag2_r.fiber_length	add_mag3_r.activation	add_mag3_r.fiber_length	tfl_r.activation	tfl_r.fiber_length	pect_r.activation	pect_r.fiber_length	grac_r.activation	grac_r.fiber_length	glut_max1_r.activation	glut_max1_r.fiber_length	glut_max2_r.activation	glut_max2_r.fiber_length	glut_max3_r.activation	glut_max3_r.fiber_length	iliacus_r.activation	iliacus_r.fiber_length	psoas_r.activation	psoas_r.fiber_length	quad_fem_r.activation	quad_fem_r.fiber_length	gem_r.activation	gem_r.fiber_length	peri_r.activation	peri_r.fiber_length	rect_fem_r.activation	rect_fem_r.fiber_length	vas_med_r.activation	vas_med_r.fiber_length	vas_int_r.activation	vas_int_r.fiber_length	vas_lat_r.activation	vas_lat_r.fiber_length	med_gas_r.activation	med_gas_r.fiber_length	lat_gas_r.activation	lat_gas_r.fiber_length	soleus_r.activation	soleus_r.fiber_length	tib_post_r.activation	tib_post_r.fiber_length	flex_dig_r.activation	flex_dig_r.fiber_length	flex_hal_r.activation	flex_hal_r.fiber_length	tib_ant_r.activation	tib_ant_r.fiber_length	per_brev_r.activation	per_brev_r.fiber_length	per_long_r.activation	per_long_r.fiber_length	per_tert_r.activation	per_tert_r.fiber_length	ext_dig_r.activation	ext_dig_r.fiber_length	ext_hal_r.activation	ext_hal_r.fiber_length	ercspn_r.activation	ercspn_r.fiber_length	ercspn_l.activation	ercspn_l.fiber_length	intobl_r.activation	intobl_r.fiber_length	intobl_l.activation	intobl_l.fiber_length	extobl_r.activation	extobl_r.fiber_length	extobl_l.activation	extobl_l.fiber_length
      0.03238850	     30.00000000	     -0.00000000	     -0.00000000	      0.00000000	    -14.30245404	      6.63660958	     17.35494636	     -0.42505581	      0.99778825	      0.33965504	     34.43314036	     -9.56238796	     -6.27202982	    -32.31405600	    -32.31405600	     21.28673218	     -1.00934940	      0.00001318	     52.13915936	      0.00000000	     -9.99811353	   -101.98648811	   -101.98648811	      6.49999992	      0.00000000	      0.00000000	    -10.88808955	     -7.44865779	    -12.26306808	     -0.00000000	     -8.91003344	      0.00000000	     72.06682857	     46.23690339	     -0.00000000	      4.87402477	     -0.00000000	     -8.91003344	     -0.00000000	     72.06682857	     46.23690339	     -0.00000000	      4.87402477	     -0.00000000	     -0.00000000	     -0.00000000	      0.00000000	    -19.34504062	    -49.94083056	    -33.32701411	      0.41633409	     -2.73666686	      0.36741878	    161.02185457	    123.45366120	    -11.65995427	   -420.31729618	   -420.31729618	   1271.43674871	    -34.90817901	      0.00000000	     -0.00000000	      0.00000000	      0.00000000	     -0.00000000	      0.00000000	      0.00000000	      0.00000000	      0.00000000	     -7.46355740	     48.40566394	     47.75925889	     -0.00000000	     -0.00000000	      0.00000000	      0.00000000	     -0.00000000	      0.00000000	      0.00000000	     -0.00000000	      0.00000000	     -0.00000000	      0.00000000	      0.00000000	     -0.00000000	      0.00000000	      0.03535359	      0.04960062	      0.08906999	      0.08685987	      0.21629434	      0.06831387	      0.03535359	      0.06931665	      0.03673397	      0.05840406	      0.13482542	      0.03680481	      0.20110191	      0.07495901	      0.46498743	      0.24118003	      0.34253765	      0.11786826	      0.23626416	      0.17003023	      0.03535562	      0.45802678	      0.03536384	      0.11004181	      0.03535359	      0.13201077	      0.03535588	      0.07946107	      0.03543292	      0.10772132	      0.04360993	      0.13722136	      0.03591747	      0.08762767	      0.03538179	      0.06891375	      0.03535359	      0.34901828	      0.08892375	      0.09692934	      0.09808114	      0.11098355	      0.08573142	      0.13977251	      0.03535377	      0.08728458	      0.03536108	      0.08026566	      0.24522311	      0.05112548	      0.43835521	      0.02131969	      0.37734226	      0.01920329	      0.20682628	      0.10444068	      0.19877207	      0.07868232	      0.24271407	      0.08022795	      0.20598501	      0.07423794	      0.37949732	      0.06082555	      0.38911381	      0.06556243	      0.48629306	      0.05764266	      0.01000000	      0.03955709	      0.01000000	      0.03727380	      0.01000000	      0.04694205	      0.22690773	      0.09539420	      0.01000000	      0.05396142	      0.01000000	      0.05553522	      0.01000000	      0.08308616	      0.01000000	      0.10547287	      0.01000000	      0.11423067	      0.13472515	      0.13509967	      0.04481819	      0.12117916	      0.03535359	      0.09515645	      0.05518731	      0.08507996	      0.16187808	      0.13636446	      0.04351647	      0.10547043
      0.03258601	     30.00000000	     -0.00000000	     -0.00000000	      0.00000000	    -14.30629706	      6.62674712	     17.34809472	     -0.42497407	      0.99724807	      0.33972786	     34.46572771	     -9.53812445	     -6.27653002	    -32.39721987	    -32.39721987	     21.53689268	     -1.01424512	      0.00001318	     52.13915936	      0.00000000	     -9.99811353	   -101.98648811	   -101.98648811	      6.49999992	      0.00000000	      0.00000000	    -10.88958760	     -7.43911007	    -12.25337228	     -0.00000000	     -8.91003344	      0.00000000	     72.06682857	     46.23690339	     -0.00000000	      4.87402477	     -0.00000000	     -8.91003344	     -0.00000000	     72.06682857	     46.23690339	     -0.00000000	      4.87402477	     -0.00000000	     -0.00000000	      0.00000000	     -0.00000000	    -19.57311132	    -49.92184267	    -36.10367177	      0.41125762	     -2.73306993	      0.36998046	    169.12570252	    122.21024268	    -33.60889315	   -421.96506223	   -421.96506223	   1261.41702055	    -14.33555203	      0.00000000	     -0.00000000	     -0.00000000	      0.00000000	     -0.00000000	      0.00000000	      0.00000000	      0.00000000	     -0.00000000	     -7.71016726	     48.26934609	     50.46680591	      0.00000000	     -0.00000000	      0.00000000	      0.00000000	     -0.00000000	      0.00000000	      0.00000000	     -0.00000000	      0.00000000	     -0.00000000	      0.00000000	      0.00000000	      0.00000000	      0.00000000	      0.03528446	      0.04959754	      0.09073114	      0.08688456	      0.21681195	      0.06834539	      0.03529306	      0.06931840	      0.03865885	      0.05841480	      0.13720678	      0.03682233	      0.20092578	      0.07491609	      0.46499405	      0.24112436	      0.34245741	      0.11783119	      0.23619513	      0.16998397	      0.03528648	      0.45799391	      0.03529467	      0.10999913	      0.03528446	      0.13198557	      0.03528674	      0.07944821	      0.03536355	      0.10771516	      0.04358853	      0.13723181	      0.03586321	      0.08763097	      0.03531258	      0.06888823	      0.03528446	      0.34895457	      0.08938982	      0.09695979	      0.09828221	      0.11101572	      0.08571431	      0.13979665	      0.03528463	      0.08725800	      0.03529193	      0.08024030	      0.24437198	      0.05113063	      0.43695511	      0.02132936	      0.37738041	      0.01922334	      0.20717568	      0.10448940	      0.19932058	      0.07874311	      0.24334686	      0.08028960	      0.20656073	      0.07429972	      0.38210314	      0.06093743	      0.39175764	      0.06568216	      0.48976548	      0.05777791	      0.01000000	      0.03958841	      0.01000000	      0.03730486	      0.01000000	      0.04699241	      0.22678829	      0.09530683	      0.01000000	      0.05396549	      0.01000000	      0.05555751	      0.01000000	      0.08304307	      0.01000000	      0.10541746	      0.01000000	      0.11417045	      0.13472098	      0.13509425	      0.04479643	      0.12118895	      0.03528446	      0.09514295	      0.05515329	      0.08508949	      0.16185286	      0.13634919	      0.04354679	      0.10548210
      0.03271039	     30.00000000	     -0.00000000	     -0.00000000	      0.00000000	    -14.30874121	      6.62053915	     17.34348667	     -0.42492314	      0.99690829	      0.33977399	     34.48711010	     -9.52297676	     -6.28150882	    -32.44980008	    -32.44980008	     21.69334758	     -1.01517410	      0.00001318	     52.13915936	      0.00000000	     -9.99811353	   -101.98648811	   -101.98648811	      6.49999992	      0.00000000	      0.00000000	    -10.89055702	     -7.43311231	    -12.24698115	     -0.00000000	     -8.91003344	      0.00000000	     72.06682857	     46.23690339	     -0.00000000	      4.87402477	     -0.00000000	     -8.91003344	     -0.00000000	     72.06682857	     46.23690339	     -0.00000000	      4.87402477	     -0.00000000	     -0.00000000	      0.00000000	     -0.00000000	    -19.73104618	    -49.90199674	    -38.01540840	      0.40775134	     -2.73050221	      0.37168294	    174.77708283	    121.35784044	    -46.26001933	   -423.61782068	   -423.61782068	   1254.25647423	     -0.52182483	      0.00000000	     -0.00000000	     -0.00000000	      0.00000000	     -0.00000000	      0.00000000	      0.00000000	      0.00000000	      0.00000000	     -7.87987830	     48.17406101	     52.32285664	     -0.00000000	     -0.00000000	     -0.00000000	      0.00000000	     -0.00000000	      0.00000000	      0.00000000	     -0.00000000	      0.00000000	     -0.00000000	      0.00000000	      0.00000000	      0.00000000	      0.00000000	      0.03524103	      0.04959599	      0.09189038	      0.08690090	      0.21717430	      0.06836548	      0.03534395	      0.06932146	      0.04016810	      0.05842269	      0.13884965	      0.03683389	      0.20081397	      0.07488917	      0.46499543	      0.24108962	      0.34240608	      0.11780798	      0.23615114	      0.16995485	      0.03524304	      0.45797217	      0.03525122	      0.10997227	      0.03524103	      0.13196977	      0.03524330	      0.07944004	      0.03531997	      0.10771136	      0.04357795	      0.13723869	      0.03582964	      0.08763308	      0.03526909	      0.06887197	      0.03524103	      0.34891468	      0.08971885	      0.09697938	      0.09842854	      0.11103620	      0.08570521	      0.13981201	      0.03524120	      0.08724118	      0.03524848	      0.08022424	      0.24380738	      0.05113306	      0.43599540	      0.02133471	      0.37737073	      0.01923580	      0.20738250	      0.10451967	      0.19967081	      0.07878144	      0.24374894	      0.08032845	      0.20692801	      0.07433866	      0.38373606	      0.06100706	      0.39341410	      0.06575660	      0.49194339	      0.05786224	      0.01000000	      0.03960751	      0.01000000	      0.03732384	      0.01000000	      0.04702348	      0.22671230	      0.09525182	      0.01000000	      0.05396828	      0.01000000	      0.05557213	      0.01000000	      0.08301593	      0.01000000	      0.10538256	      0.01000000	      0.11413253	      0.13471827	      0.13509081	      0.04478314	      0.12119516	      0.03524103	      0.09513450	      0.05513031	      0.08509537	      0.16183674	      0.13633952	      0.04356859	      0.10548947
      0.03283477	     30.00000000	     -0.00000000	     -0.00000000	      0.00000000	    -14.31120572	      6.61433408	     17.33863291	     -0.42487265	      0.99656885	      0.33982032	     34.50922227	     -9.50793824	     -6.28798162	    -32.50261938	    -32.50261938	     21.84885534	     -1.01436377	      0.00001318	     52.13915936	      0.00000000	     -9.99811353	   -101.98648811	   -101.98648811	      6.49999992	      0.00000000	      0.00000000	    -10.89154819	     -7.42712686	    -12.24035184	     -0.00000000	     -8.91003344	      0.00000000	     72.06682857	     46.23690339	     -0.00000000	      4.87402477	     -0.00000000	     -8.91003344	     -0.00000000	     72.06682857	     46.23690339	     -0.00000000	      4.87402477	      0.00000000	     -0.00000000	      0.00000000	     -0.00000000	    -19.90041989	    -49.87504864	    -40.05479461	      0.40400506	     -2.72770500	      0.37344328	    180.86173627	    120.45549886	    -57.55758086	   -425.82563747	   -425.82563747	   1246.12251507	     13.53647091	      0.00000000	     -0.00000000	     -0.00000000	      0.00000000	     -0.00000000	      0.00000000	      0.00000000	      0.00000000	      0.00000000	     -8.06004474	     48.07143342	     54.29680291	      0.00000000	     -0.00000000	      0.00000000	      0.00000000	     -0.00000000	      0.00000000	      0.00000000	     -0.00000000	      0.00000000	     -0.00000000	      0.00000000	      0.00000000	      0.00000000	      0.00000000	      0.03519768	      0.04959473	      0.09313293	      0.08691786	      0.21756834	      0.06838578	      0.03610573	      0.06932765	      0.04183567	      0.05843124	      0.14059636	      0.03684584	      0.20070149	      0.07486232	      0.46499521	      0.24105514	      0.34235412	      0.11778487	      0.23610673	      0.16992572	      0.03519969	      0.45794953	      0.03520785	      0.10994542	      0.03519768	      0.13195403	      0.03519995	      0.07943182	      0.03527648	      0.10770764	      0.04356997	      0.13724583	      0.03579653	      0.08763523	      0.03522569	      0.06885553	      0.03519768	      0.34887497	      0.09007695	      0.09699931	      0.09859293	      0.11105690	      0.08569802	      0.13982755	      0.03519785	      0.08722427	      0.03520512	      0.08020811	      0.24322451	      0.05113495	      0.43498129	      0.02133954	      0.37734845	      0.01924814	      0.20757900	      0.10454961	      0.20002640	      0.07881982	      0.24415533	      0.08036736	      0.20730058	      0.07437765	      0.38536274	      0.06107602	      0.39506400	      0.06583025	      0.49411451	      0.05794589	      0.01000000	      0.03962609	      0.01000000	      0.03734236	      0.01000000	      0.04705402	      0.22663569	      0.09519682	      0.01000000	      0.05397131	      0.01000000	      0.05558726	      0.01000000	      0.08298880	      0.01000000	      0.10534766	      0.01000000	      0.11409461	      0.13471548	      0.13508735	      0.04477020	      0.12120139	      0.03519768	      0.09512609	      0.05510601	      0.08510115	      0.16182043	      0.13632979	      0.04359259	      0.10549686
